<svg width="875" height="165" viewBox="0 0 875 165" fill="none" xmlns="http://www.w3.org/2000/svg">
<path fill-rule="evenodd" clip-rule="evenodd" d="M65.2787 164.459L63.0561 164.399C32.0077 163.571 5.25334 138.172 0.928466 106.876C-1.43921 89.9896 2.71823 75.0576 11.6198 64.3233C20.5272 53.5821 34.0584 47.2 50.1094 47.2C63.2059 47.2 73.6326 53.0332 79.8404 58.6619L78.6134 49.8H106.643L117.686 126.693C117.686 126.696 117.687 126.7 117.687 126.704C118.375 131.117 119.373 134.434 120.749 136.604C122.052 138.661 123.615 139.6 125.709 139.6C126.488 139.6 127.085 139.51 127.487 139.367C127.679 139.298 127.79 139.23 127.849 139.184C127.871 139.166 127.886 139.152 127.897 139.14C127.911 139.124 127.917 139.113 127.921 139.106L129.518 135.91L139.568 152.043L139.137 153.012C136.328 159.333 128.657 164.4 116.909 164.4C109.326 164.4 96.4473 160.632 92.0298 148.483L91.9584 148.287L83.3848 87.6741C78.5733 79.6501 68.0597 71 53.7094 71C45.2618 71 38.419 74.3142 34.0103 79.9564C29.5872 85.6171 27.4499 93.8372 28.8889 103.914C31.5894 122.625 45.6405 138.154 61.7631 140.216L63.3748 140.422L65.2787 164.459ZM26.9094 104.2C23.9094 83.2 35.7094 69 53.7094 69C69.1094 69 80.3094 78.4 85.3094 87L93.9094 147.8C97.9094 158.8 109.709 162.4 116.909 162.4C128.109 162.4 134.909 157.6 137.309 152.2L129.709 140C129.406 140.606 128.848 141.009 128.137 141.258C127.441 141.502 126.6 141.6 125.709 141.6C119.909 141.6 117.109 136 115.709 127L104.909 51.8H80.9094L82.7094 64.8C82.0755 63.8944 81.2639 62.9069 80.2863 61.8827C74.7869 56.1208 64.0342 49.2 50.1094 49.2C19.1094 49.2 -1.69064 73.8 2.90937 106.6C7.01512 136.318 31.9535 160.493 61.096 162.31C61.765 162.352 62.4362 162.382 63.1094 162.4L61.5094 142.2C44.3094 140 29.7094 123.6 26.9094 104.2ZM220.198 162L210.561 92.6967C210.561 92.6937 210.56 92.6908 210.56 92.6878C208.864 81.4019 201.496 74.2 192.139 74.2C183.978 74.2 175.249 79.8163 171.02 87.1729L175.869 118.8H147.002L137.236 49.8H166.021L167.961 60.9553C174.39 54.0719 185.642 47.2 198.939 47.2C213.786 47.2 223.242 53.9651 229.103 61.914C235.379 54.8824 245.735 47.2 262.139 47.2C274.301 47.2 284.152 51.1164 291.433 58.7164C298.67 66.2697 303.184 77.2684 305.119 91.1193M305.12 91.1233L309.043 118.8H280.604L276.959 93.2828C275.27 81.4593 266.746 73.6 257.139 73.6C248.671 73.6 241.633 78.9406 238.009 85.9354L249.05 162H220.198M235.939 85.6L246.739 160H221.939L212.539 92.4C210.739 80.4 202.739 72.2 192.139 72.2C182.939 72.2 173.339 78.6 168.939 86.8L173.539 116.8H148.739L139.539 51.8H164.339L166.739 65.6C167.231 64.9003 167.785 64.1863 168.398 63.467C174.269 56.5785 185.538 49.2 198.939 49.2C213.276 49.2 222.239 55.7869 227.766 63.474C228.175 64.044 228.566 64.6201 228.939 65.2C229.363 64.6737 229.81 64.1389 230.282 63.5995C236.268 56.7605 246.196 49.2 262.139 49.2C285.539 49.2 299.339 64.2 303.139 91.4L306.739 116.8H282.339L278.939 93C277.139 80.4 267.939 71.6 257.139 71.6C247.539 71.6 239.739 77.8 235.939 85.6ZM329.033 118.8L319.267 49.8H348.061L350.136 62.0917C355.965 54.9667 366.639 47.2 381.57 47.2C394.24 47.2 404.406 50.6102 411.929 58.0807C419.409 65.5076 424.018 76.6933 426.15 91.719L426.151 91.7261L435.866 162H407.228L397.792 93.8919C397.791 93.8887 397.791 93.8855 397.79 93.8823C396.124 82.6165 386.924 75 377.17 75C366.571 75 358.646 81.4761 353.644 91.3232L357.904 118.8H329.033ZM351.57 91C356.77 80.4 365.37 73 377.17 73C387.97 73 397.97 81.4 399.77 93.6L408.97 160H433.57L424.17 92C419.97 62.4 406.17 49.2 381.57 49.2C366.363 49.2 355.797 57.6822 350.588 64.7682C349.974 65.6036 349.434 66.4196 348.97 67.2L346.37 51.8H321.57L330.77 116.8H355.57L351.57 91ZM500.642 47.3578L503.033 47.6111C534.305 50.9247 551.698 73.9819 555.202 98.7195L555.206 98.7492L555.21 98.7791C555.823 104.301 555.638 110.934 554.977 114.019L554.644 115.577L509.483 116.225L506.314 93.3079L526.632 94.1047C524.174 82.636 515.286 74.4477 504.024 72.16L502.545 71.8596L500.642 47.3578ZM528.69 94.1855C528.821 94.8472 528.932 95.5188 529.022 96.2L508.622 95.4L511.222 114.2L553.022 113.6C553.622 110.8 553.822 104.4 553.222 99C549.899 75.5419 533.774 53.8034 504.847 49.8456C504.179 49.7542 503.504 49.6722 502.822 49.6L504.422 70.2C516.581 72.6698 526.213 81.6364 528.69 94.1855ZM558.422 150.6C550.422 157.6 534.222 162.8 513.422 162.8C478.422 162.8 453.022 141.6 448.422 108.4C445.351 87.0987 451.672 68.3754 465.97 58.0603C466.573 57.6251 467.19 57.2048 467.822 56.8L475.222 113.4C478.422 131.2 496.422 141.4 514.622 141.4C528.745 141.4 541.66 138.637 549.195 133.112C549.769 132.69 550.312 132.253 550.822 131.8L558.422 150.6ZM477.199 113.093L469.396 53.4151L466.743 55.1162C450.3 65.6563 443.166 85.9482 446.442 108.682C448.806 125.733 456.531 139.793 468.239 149.584C479.942 159.372 495.513 164.8 513.422 164.8C534.446 164.8 551.217 159.562 559.739 152.105L560.809 151.169L551.613 128.421L549.493 130.305C546.22 133.215 541.307 135.506 535.226 137.062C529.17 138.613 522.091 139.4 514.622 139.4C497.003 139.4 480.188 129.563 477.199 113.093ZM599.439 113.768L596.532 112.92C581.875 108.645 569.484 101.068 567.113 84.6865L567.111 84.6751C565.496 73.0425 570.507 63.5544 579.362 57.085C588.145 50.6693 600.694 47.2 614.492 47.2C636.247 47.2 650.549 57.0281 653.506 59.9858L654.265 60.7444L649.178 85.9252L646.501 82.4121C645.908 81.6335 644.634 80.5075 642.66 79.2332C640.726 77.9838 638.241 76.6693 635.352 75.4727C629.566 73.0762 622.277 71.2 614.692 71.2C608.488 71.2 603.298 72.3214 599.862 74.1628C596.445 75.9939 595.132 78.2715 595.473 80.7249L595.476 80.7433L595.478 80.7617L599.439 113.768ZM646.005 161.891L642.108 129.848C641.896 128.156 640.816 126.435 638.688 124.778C636.563 123.123 633.553 121.664 629.89 120.507L628.615 120.105L626.264 93.066L628.919 93.6461C640.847 96.2522 650.375 99.2142 657.24 103.87C664.241 108.618 668.396 115.073 669.673 124.321C671.018 133.544 669.802 141.382 666.087 147.645C662.367 153.918 656.282 158.375 648.34 161.092L646.005 161.891ZM630.539 96.0565C653.039 101.181 665.362 107.706 667.692 124.6C670.18 141.63 663.514 152.985 649.62 158.489C648.992 158.738 648.35 158.975 647.692 159.2L644.092 129.6C643.492 124.8 638.092 121 630.492 118.6L628.492 95.6C629.184 95.7511 629.866 95.9032 630.539 96.0565ZM617.86 164.731L615.575 164.597C594.755 163.372 582.213 156.421 576.968 152.854L576.065 152.24L576.814 122.555L580.135 126.015C582.277 128.246 586.809 131.268 592.919 133.943C598.983 136.597 606.429 138.833 614.289 139.61L615.959 139.775L617.86 164.731ZM646.398 79.488C641.289 75.1807 628.527 69.2 614.692 69.2C601.892 69.2 592.492 73.8 593.492 81L597.092 111C596.388 110.795 595.691 110.582 595.001 110.362C581.599 106.076 571.185 98.8565 569.092 84.4C566.092 62.8 587.492 49.2 614.492 49.2C635.692 49.2 649.492 58.8 652.092 61.4L648.092 81.2C647.694 80.6777 647.123 80.0997 646.398 79.488ZM580.648 129.16C586.731 134.022 599.701 140.179 614.092 141.6L615.692 162.6C615.011 162.56 614.339 162.514 613.676 162.461C594.485 160.95 582.925 154.486 578.092 151.2L578.692 127.4C579.228 127.958 579.884 128.549 580.648 129.16ZM675.778 17.8C674.778 10 679.978 2.19998 689.578 2.19998C697.578 2.19998 703.378 8.39999 704.178 15C705.378 22.6 700.778 30.4 690.978 30.4C682.178 30.4 676.778 24.2 675.778 17.8ZM706.159 14.7237C705.232 7.2218 698.662 0.199982 689.578 0.199982C678.615 0.199982 672.662 9.22006 673.794 18.0543L673.798 18.0816L673.802 18.1087C674.937 25.3698 681.083 32.4 690.978 32.4C696.455 32.4 700.66 30.1956 703.29 26.7674C705.879 23.3925 706.824 18.9894 706.159 14.7237ZM695.839 162L680.299 50.944L708.902 49.0836L724.677 162H695.839ZM722.378 160L707.178 51.2L682.578 52.8L697.578 160H722.378ZM800.63 164.459L798.408 164.399C767.36 163.571 740.606 138.173 736.28 106.878C733.912 89.9908 738.069 75.0581 746.971 64.3233C755.879 53.5821 769.41 47.2 785.461 47.2C798.557 47.2 808.984 53.0332 815.192 58.6619L813.965 49.8H841.994L853.037 126.693C853.038 126.697 853.039 126.702 853.039 126.706C853.727 131.118 854.725 134.434 856.1 136.604C857.403 138.661 858.967 139.6 861.061 139.6C861.839 139.6 862.436 139.51 862.838 139.367C863.03 139.298 863.141 139.23 863.2 139.184C863.252 139.143 863.266 139.118 863.272 139.106L864.87 135.91L874.919 152.043L874.489 153.012C871.679 159.333 864.009 164.4 852.261 164.4C844.678 164.4 831.799 160.632 827.381 148.483L827.31 148.287L818.736 87.6741C813.925 79.6501 803.411 71 789.061 71C780.613 71 773.771 74.3142 769.362 79.9564C764.938 85.6176 762.801 93.8388 764.241 103.917C766.942 122.627 780.993 138.154 797.115 140.216L798.726 140.422L800.63 164.459ZM762.261 104.2C759.261 83.2 771.061 69 789.061 69C804.461 69 815.661 78.4 820.661 87L829.261 147.8C833.261 158.8 845.061 162.4 852.261 162.4C863.461 162.4 870.261 157.6 872.661 152.2L865.061 140C864.758 140.606 864.199 141.009 863.488 141.258C862.793 141.502 861.951 141.6 861.061 141.6C855.261 141.6 852.461 136 851.061 127L840.261 51.8H816.261L818.061 64.8C817.427 63.8944 816.615 62.9069 815.638 61.8827C810.138 56.1208 799.386 49.2 785.461 49.2C754.461 49.2 733.661 73.8 738.261 106.6C742.367 136.318 767.305 160.493 796.448 162.31C797.117 162.352 797.788 162.382 798.461 162.4L796.861 142.2C779.661 140 765.061 123.6 762.261 104.2Z" fill="#FFFEFE"/>
</svg>
